<svg xmlns="http://www.w3.org/2000/svg" width="95" height="98" viewBox="0 0 95 98" fill="none"><path d="M52.575 85.3033C53.2213 87.014 54.5138 88.2684 56.4526 89.1428C58.5054 90.0551 60.5582 90.1691 62.6491 89.4849C60.2161 86.2917 56.8708 84.8852 52.575 85.3033ZM42.7291 85.3033C37.7111 84.8852 34.3277 86.4057 32.6171 89.827C34.974 90.2452 37.0648 89.9791 38.8896 89.1047C40.6383 88.2684 41.9308 87.014 42.7291 85.3033ZM60.2161 83.7448C60.9004 85.1513 62.459 86.1397 64.8539 86.7099C67.3249 87.2421 69.3397 86.976 70.8603 85.8355C69.7579 84.6191 68.1993 83.7828 66.2225 83.3266C64.0936 82.7944 62.0788 82.9085 60.2161 83.7448ZM35.05 83.7448C33.1112 82.9465 31.0204 82.7944 28.8155 83.2886C26.7247 83.7828 25.1661 84.7331 24.1777 86.1397C26.0024 87.014 28.0932 87.166 30.3742 86.6338C32.6551 86.1016 34.1757 85.1133 35.05 83.7448ZM67.439 80.5516C68.3894 81.9201 70.2141 82.6044 72.9132 82.6804C75.6883 82.7184 77.475 81.9961 78.3113 80.5516C76.8668 79.6012 75.08 79.1451 72.9132 79.1451C70.7083 79.1451 68.8836 79.6012 67.439 80.5516ZM16.7267 81.0838C18.0952 82.1102 19.882 82.6043 22.1249 82.5663C24.3677 82.5663 26.1925 82.0722 27.561 81.0838C26.6106 79.6773 24.8239 78.993 22.1629 79.0691C19.6158 79.1071 17.7911 79.7913 16.7267 81.0838ZM45.3902 83.7448C44.5918 79.4492 41.9308 76.9783 37.445 76.332C38.5094 80.7037 41.1705 83.1746 45.3902 83.7448ZM57.3269 76.0659C52.9552 77.4345 50.4082 79.9434 49.6098 83.7068C51.8908 83.4026 53.7535 82.5663 55.1601 81.2358C56.6807 79.8293 57.403 78.1187 57.3269 76.0659ZM57.0608 82.6804C60.8624 81.5019 63.0672 78.6129 63.7135 73.9372C59.7219 74.8875 57.517 77.7766 57.0608 82.6804ZM38.2053 82.4143C37.3309 77.6245 35.1261 74.8115 31.5906 73.9372C31.6287 76.256 32.3509 78.1947 33.6054 79.7913C34.8599 81.3119 36.4186 82.1862 38.2053 82.4143ZM74.0536 76.5981C75.9544 77.3964 78.0452 77.5485 80.2121 77.0923C82.455 76.6742 83.9376 75.6858 84.6599 74.2033C82.7971 73.443 80.7443 73.2909 78.5394 73.7471C76.3726 74.2033 74.89 75.1536 74.0536 76.5981ZM21.2125 76.332C20.1481 75.0776 18.5134 74.2033 16.3085 73.7091C13.7995 73.1389 11.8988 73.481 10.5682 74.7735C11.5946 75.9899 13.2293 76.7882 15.4342 77.2064C17.7911 77.6245 19.6919 77.3204 21.2125 76.332ZM64.2837 80.0194C65.7283 79.6012 66.9828 78.4228 68.0472 76.4841C69.2257 74.3173 69.3778 72.2265 68.5414 70.2498C64.8539 73.0629 63.4474 76.332 64.2837 80.0194ZM31.0584 80.2855C31.4766 75.6098 29.88 72.2646 26.2685 70.2498C25.8884 72.5687 26.1925 74.6214 27.1429 76.4841C28.0172 78.1947 29.3477 79.4492 31.0584 80.2855ZM79.6038 71.0481C84.5458 71.5043 87.8912 70.0978 89.7159 66.8286C87.435 66.2964 85.3441 66.4864 83.4434 67.3227C81.6947 68.159 80.4022 69.4135 79.6038 71.0481ZM15.6623 70.782C13.0392 67.1707 9.69388 65.8402 5.55022 66.8286C6.0064 68.2351 7.22289 69.3755 9.16166 70.2118C11.2905 71.2002 13.4574 71.3522 15.6623 70.782ZM71.1645 76.332C72.3429 75.1156 73.1793 73.6331 73.7115 71.9224C74.3197 69.8317 74.2817 67.8929 73.5594 66.0303C72.0388 66.5244 70.9364 68.007 70.3281 70.4399C69.6819 72.9108 69.948 74.8875 71.1645 76.332ZM21.7827 65.7642C20.9464 67.7029 20.8323 69.7936 21.4786 71.9604C22.0868 74.1272 23.1513 75.5718 24.7099 76.332C25.3561 74.2413 25.3561 72.1505 24.7479 70.1358C24.1777 68.2351 23.1893 66.7525 21.7827 65.7642ZM76.7147 60.7463C75.6503 61.8487 75.042 63.5213 74.928 65.8782C74.7759 68.1971 75.1941 69.9837 76.2205 71.3142C77.589 70.4779 78.3493 68.7673 78.5014 66.1823C78.6535 63.5974 78.0452 61.8107 76.7147 60.7463ZM19.1216 71.3142C19.996 69.6796 20.3762 67.7409 20.3001 65.5741C20.1481 63.2552 19.4258 61.6587 18.0572 60.7463C17.0308 62.1148 16.5746 64.0155 16.7267 66.4864C16.9168 69.0714 17.7151 70.668 19.1216 71.3142ZM84.1657 64.4717C88.9936 64.2056 91.9968 62.1528 93.2133 58.3895C88.3093 58.5795 85.3061 60.5943 84.1657 64.4717ZM1.86275 58.3514C3.30732 62.2669 6.38656 64.2816 11.2145 64.4337C9.69388 60.4422 6.61465 58.4275 1.86275 58.3514ZM81.2385 65.4981C81.9988 63.7114 82.2269 61.7347 81.8848 59.5299C81.5046 57.173 80.6683 55.6905 79.3377 54.9682C78.3493 56.5648 78.0452 58.5035 78.4634 60.8604C78.8816 63.2172 79.8319 64.7758 81.2385 65.4981ZM15.3962 54.9682C14.2177 56.0706 13.4954 57.7052 13.1913 59.796C12.8491 62.0388 13.1533 63.9395 14.0656 65.5361C15.4722 64.5857 16.3465 62.9511 16.7267 60.5563C17.1068 58.1234 16.6507 56.2607 15.3962 54.9682ZM87.0548 57.059C91.4266 56.4127 94.0496 53.9418 95 49.6462C90.8563 50.1024 88.1953 52.5733 87.0548 57.059ZM8.21128 56.7929C6.88075 52.7634 4.21969 50.2925 0.266106 49.3801C0.304122 51.3189 1.10244 53.1055 2.69908 54.6641C4.33373 56.2607 6.19648 56.9449 8.21128 56.7929ZM84.4318 58.9216C84.964 56.6028 84.8499 54.512 84.0516 52.5733C83.3674 50.7486 82.2649 49.4562 80.7063 48.6199C79.7559 53.0675 81.0104 56.4888 84.4318 58.9216ZM14.1036 48.6199C10.8723 51.2808 9.73189 54.7021 10.6062 58.9216C12.2029 58.1234 13.4194 56.7168 14.2557 54.6261C15.092 52.4593 15.016 50.4445 14.1036 48.6199ZM80.9344 42.2715C80.6683 44.7044 81.1625 46.7572 82.379 48.5058C83.4434 49.9884 84.8119 50.9767 86.5226 51.5089C86.5226 47.0233 84.6218 43.9441 80.9344 42.2715ZM13.8375 42.2715C9.84594 44.8185 8.21128 47.9736 9.04762 51.737C10.7963 50.6726 12.1649 49.3801 13.0772 47.9356C14.2937 46.0729 14.5218 44.1722 13.8375 42.2715ZM88.6515 49.3801C90.6663 48.6579 92.2629 47.5935 93.3273 46.187C94.6579 44.5524 95.1521 42.6137 94.7719 40.4088C90.8563 42.4236 88.8035 45.4267 88.6515 49.3801ZM6.38655 49.3801C6.23449 44.8945 4.14366 41.9294 0 40.4088C0.228091 44.9705 2.31893 47.9736 6.38655 49.3801ZM79.908 35.9232C80.2121 40.3708 82.569 43.0698 87.0548 44.0962C86.3706 39.7246 84.0136 37.0256 79.908 35.9232ZM8.51541 44.3623C12.621 42.6137 14.94 39.8767 15.3962 36.1893C15.3201 35.9612 15.1301 35.8852 14.8259 35.9232C12.9632 36.4934 11.3285 37.5958 10.036 39.1924C8.66747 40.941 8.13525 42.6517 8.51541 44.3623ZM88.6515 41.4732C90.4002 40.751 91.6927 39.5725 92.567 37.9379C93.5554 36.1513 93.8215 34.1746 93.4034 32.0078C91.8828 32.3879 90.6663 33.4143 89.7159 35.1629C88.8415 36.9116 88.4614 39.0403 88.6515 41.4732ZM6.38655 41.4732C6.76671 36.5694 5.17007 33.3002 1.59664 31.7036C1.21649 36.4934 2.81313 39.7246 6.38655 41.4732ZM77.513 30.1071C78.1593 32.0838 79.1857 33.6804 80.6303 34.8588C82.2649 36.1893 84.1277 36.6835 86.2565 36.4174C84.2417 32.2739 81.3145 30.1451 77.513 30.1071ZM17.563 30.1071C13.1913 30.2971 10.3782 32.5019 9.04762 36.6835C13.4574 36.4554 16.3085 34.2506 17.563 30.1071ZM74.3197 24.557C75.6123 28.0543 78.8055 29.8029 83.8996 29.841C82.379 26.0776 79.1857 24.3289 74.3197 24.557ZM11.4046 29.841C13.5334 29.917 15.5102 29.4608 17.2209 28.5865C19.0836 27.5981 20.3001 26.2677 20.9464 24.557C18.4374 24.3289 16.2705 24.7851 14.4838 25.8115C12.8111 26.8379 11.8227 28.2064 11.4046 29.841ZM89.7159 23.2645C88.4994 24.3289 87.6251 25.8495 87.0548 27.9023C86.4846 30.1831 86.6747 32.1978 87.6251 33.8324C88.9556 32.9201 89.906 31.3615 90.5142 29.1567C91.1605 26.6858 90.8944 24.7471 89.7159 23.2645ZM7.71709 33.7944C8.47739 31.8557 8.59144 29.841 8.05922 27.7122C7.52701 25.6214 6.5006 24.1389 5.05602 23.2265C4.21969 25.0512 4.10564 27.0659 4.71389 29.2708C5.32213 31.3615 6.31052 32.8441 7.71709 33.7944ZM14.8639 23.2645C17.1829 23.7207 19.3497 23.6447 21.2885 23.0365C23.2273 22.3902 24.5198 21.3258 25.2041 19.8053C22.8852 19.3111 20.7563 19.3871 18.8175 19.9953C16.8788 20.6416 15.5482 21.706 14.8639 23.2645ZM69.8339 20.3375C72.381 23.3406 75.9164 24.2909 80.4402 23.2265C79.6799 21.668 78.1593 20.5275 75.9164 19.8433C73.5214 19.121 71.5066 19.2731 69.8339 20.3375ZM84.926 15.5857C83.8996 16.8022 83.2913 18.5128 83.1773 20.7936C83.0632 23.0745 83.4434 24.9372 84.4318 26.3817C85.8383 25.4694 86.5986 23.7207 86.7507 21.1358C86.9028 18.5508 86.2565 16.6501 84.926 15.5857ZM10.6062 26.3817C11.6327 24.8611 12.0888 22.9604 12.0128 20.6796C11.8988 18.3227 11.2145 16.6121 9.88395 15.5857C8.85754 16.9162 8.40136 18.8549 8.55342 21.3258C8.66747 23.8348 9.35174 25.5074 10.6062 26.3817ZM64.7779 16.384C65.7283 17.5625 67.477 18.2847 70.1 18.5128C72.7991 18.7029 74.6239 18.1707 75.6503 16.8782C74.2057 15.7758 72.419 15.1676 70.2901 14.9395C67.9332 14.7494 66.1084 15.2056 64.7779 16.384ZM30.2221 16.0799C28.7775 15.0915 26.9908 14.7494 24.7099 15.0155C22.7331 15.2436 21.0224 15.8898 19.6158 16.9162C20.5662 18.2467 22.429 18.7789 25.2421 18.5508C27.9792 18.2847 29.6138 17.4864 30.2221 16.0799ZM58.9236 13.7611C60.4822 14.6734 62.459 14.9775 64.892 14.7114C67.2869 14.4453 68.9596 13.685 69.8339 12.4306C68.3133 11.3282 66.3365 10.948 63.9036 11.2521C61.5086 11.5562 59.874 12.3926 58.9236 13.7611ZM36.1144 13.7611C35.2781 12.3165 33.5674 11.4422 31.0204 11.2141C28.5114 10.986 26.5726 11.4422 25.2041 12.6967C26.4586 13.723 28.1313 14.4073 30.2981 14.7114C32.6931 15.0155 34.5938 14.7114 36.1144 13.7611ZM80.7063 19.8053C81.5046 17.9806 81.7327 15.9659 81.3525 13.723C80.9724 11.4042 80.1361 9.88363 78.8435 9.00931C77.8171 10.6439 77.551 12.6587 78.0072 15.0535C78.3874 17.4104 79.2997 19.007 80.7063 19.8053ZM16.1565 8.9713C14.8639 9.95966 14.0656 11.6703 13.6855 13.9891C13.2673 16.422 13.6475 18.3607 14.8259 19.7673C16.0424 18.5128 16.8407 16.8022 17.2209 14.6734C17.601 12.4306 17.2589 10.5299 16.1565 8.9713ZM42.501 11.8984C39.8399 8.74321 36.3806 7.71684 32.1229 8.74321C32.579 10.1497 33.9096 11.2521 36.1525 12.0504C38.5474 12.8867 40.6383 12.8107 42.501 11.8984ZM52.8411 12.1265C54.97 12.7727 57.0608 12.7347 59.0376 12.0504C61.0144 11.4042 62.383 10.3018 63.2193 8.74321C61.0144 8.21102 58.9236 8.24903 57.0228 8.89527C55.008 9.50349 53.6014 10.5679 52.8411 12.1265ZM48.8495 85.5694C61.0524 83.8588 70.5182 79.4872 77.2469 72.3786C85.5342 63.6354 89.2597 53.2956 88.3473 41.4732C87.8151 33.8704 84.8119 26.7238 79.3377 20.1094C73.9016 13.4569 68.1613 9.19938 62.1168 7.41272C70.4422 12.0884 76.6006 16.9922 80.6683 22.1621C86.0284 29.1187 88.4234 37.2917 87.8531 46.7192C87.2829 55.9946 83.8996 64.0535 77.7411 70.896C71.8868 77.3584 64.6259 81.654 55.9584 83.7448C50.3701 85.1133 45.086 85.1893 40.03 84.0109C31.2865 81.9961 23.9116 77.8526 17.9432 71.6183C11.6707 65.0039 8.13525 57.249 7.37495 48.3158C6.57663 38.7362 8.7435 30.3351 13.9136 23.1125C18.0572 17.2964 24.3677 12.0124 32.8451 7.18464C15.1301 15.7758 6.38655 28.5485 6.65266 45.4267C6.84274 55.9946 10.9104 65.232 18.8936 73.1769C25.4702 79.7153 34.6319 83.9348 46.4926 85.7975C41.0184 88.5345 38.2053 92.564 37.9772 97.962C38.6995 97.3918 39.1937 96.4795 39.4978 95.225C39.916 93.5144 40.1821 92.488 40.3722 92.1078C41.7787 89.4469 44.2497 87.4321 47.7851 86.0636C50.1421 86.8239 52.0808 88.3825 53.6395 90.7774C54.3617 91.9178 55.5022 94.2746 57.0608 97.924C57.3269 93.2483 54.5898 89.1047 48.8495 85.5694ZM75.118 14.0272C75.6123 11.7463 75.5362 9.69356 74.8139 7.75485C74.0916 5.85415 72.9512 4.59969 71.3926 3.95345C70.8604 6.15826 71.0124 8.21102 71.8107 10.0737C72.533 11.8223 73.6355 13.1528 75.118 14.0272ZM23.3413 3.72537C20.11 6.5384 18.9696 9.95966 19.882 14.0272C21.4786 13.2669 22.6951 11.8984 23.4934 9.8076C24.4438 7.52677 24.4058 5.51203 23.3413 3.72537ZM62.1168 6.34833C61.0144 4.86579 59.6078 3.76338 57.8591 3.0031C55.7683 2.12878 53.7155 2.09077 51.7387 2.88906C52.8411 4.33359 54.2477 5.436 55.9584 6.19628C58.1253 7.0706 60.1401 7.10861 62.1168 6.34833ZM43.2233 2.39488C38.2813 1.93871 34.974 3.34523 33.1873 6.61443C35.5062 7.0706 37.6351 6.91854 39.5358 6.08223C41.3605 5.32196 42.615 4.10551 43.2233 2.39488ZM68.7315 9.50349C68.8836 4.9038 67.0208 1.74864 63.1813 0C62.9152 4.25756 64.7779 7.45074 68.7315 9.50349ZM31.5906 0C28.2073 1.82467 26.4586 4.9038 26.2685 9.23739C27.9412 8.93328 29.4238 7.86889 30.6783 6.00621C32.0088 3.95345 32.3129 1.93871 31.5906 0Z" fill="url(#paint0_linear_186_743)"></path><path d="M42.0827 53.0295H24.2156V50.4065C24.5577 50.0264 25.0519 49.5702 25.6602 49.076C26.2684 48.5818 26.9907 48.0496 27.865 47.4794C28.3592 47.1373 28.9675 46.7572 29.6898 46.377C30.4121 45.9589 31.2104 45.5027 32.1227 45.0465C33.1491 44.5143 33.9095 44.0202 34.4417 43.64C34.9739 43.2219 35.4681 42.7277 35.9243 42.1195C36.2284 41.7393 36.4565 41.2451 36.6465 40.6369C36.8366 40.0287 36.9127 39.1924 36.9127 38.128C36.9127 36.5314 36.4945 35.353 35.6201 34.6307C34.7838 33.9085 33.6814 33.5283 32.3128 33.5283C31.4765 33.5283 30.7162 33.6804 29.9559 34.0225C29.2336 34.3266 28.6634 34.7828 28.2832 35.353C28.3592 35.7711 28.4733 36.2273 28.6253 36.7975C28.7774 37.3677 28.8154 37.8999 28.8154 38.4321C28.8154 38.9263 28.6253 39.3444 28.2072 39.7246C27.789 40.1047 27.2188 40.2948 26.4205 40.2948C25.7742 40.2948 25.28 40.0667 24.9379 39.6486C24.5957 39.2304 24.4057 38.6222 24.4057 37.8999C24.4057 37.2157 24.5957 36.5314 24.9759 35.8472C25.356 35.1629 25.8882 34.5167 26.6105 33.9084C27.2948 33.3382 28.1692 32.8821 29.1956 32.5399C30.222 32.1978 31.3244 32.0078 32.5409 32.0078C35.1259 32.0078 37.2168 32.578 38.7374 33.7564C40.258 34.9348 41.0563 36.4554 41.0563 38.4321C41.0563 39.3444 40.9423 40.2188 40.6381 40.979C40.372 41.7393 39.9159 42.4236 39.3076 42.9938C38.6614 43.64 37.863 44.2102 36.9507 44.6664C36.0383 45.1226 34.6698 45.7688 32.807 46.6051C31.7046 47.0993 30.6782 47.6315 29.6898 48.1637C28.7394 48.6959 27.9411 49.2281 27.3328 49.7223H42.0067V53.0295H42.0827ZM66.8306 44.1342C66.5645 44.2482 66.2984 44.3243 66.0703 44.4003C65.8422 44.4763 65.5381 44.5143 65.1579 44.5143C64.6257 44.5143 64.2836 44.4003 64.0555 44.1342C63.8274 43.8681 63.7514 43.488 63.7514 43.0318V38.8123H62.6489V38.204H63.7894V36.2653H64.9299V38.204H66.7166V38.8123H64.9299V42.3095C64.9299 42.5756 64.9299 42.8037 64.9679 42.9558C64.9679 43.1458 65.0439 43.2979 65.0819 43.4119C65.1579 43.526 65.272 43.64 65.386 43.678C65.5381 43.7541 65.6902 43.7921 65.9182 43.7921C66.0323 43.7921 66.1844 43.7921 66.3744 43.7541C66.5645 43.7541 66.7166 43.7161 66.7926 43.678V44.1342H66.8306ZM74.2056 44.4003H71.1643V43.9821C71.2404 43.9821 71.3544 43.9822 71.4685 43.9441C71.5825 43.9441 71.6966 43.9061 71.7726 43.9061C71.8866 43.8681 71.9627 43.7921 72.0387 43.7161C72.1147 43.64 72.1147 43.488 72.1147 43.3359V40.1427C72.1147 39.6866 72.0007 39.3444 71.8106 39.1164C71.6205 38.8883 71.3544 38.7742 71.0503 38.7742C70.8222 38.7742 70.6321 38.8123 70.4421 38.8883C70.252 38.9643 70.0999 39.0403 69.9479 39.1544C69.7958 39.2684 69.6818 39.3825 69.6437 39.4585C69.5677 39.5725 69.4917 39.6486 69.4537 39.7246V43.2979C69.4537 43.45 69.4917 43.564 69.5297 43.64C69.6057 43.7161 69.6818 43.7921 69.7958 43.8681C69.8718 43.9061 69.9859 43.9441 70.0999 43.9441C70.1759 43.9441 70.29 43.9821 70.404 43.9821V44.4003H67.3628V43.9821C67.4769 43.9821 67.5529 43.9822 67.6669 43.9441C67.781 43.9441 67.857 43.9061 67.9331 43.9061C68.0471 43.8681 68.1231 43.7921 68.1992 43.7161C68.2752 43.64 68.2752 43.488 68.2752 43.3359V36.1133C68.2752 35.9612 68.2372 35.8472 68.1992 35.6951C68.1231 35.5431 68.0471 35.429 67.9331 35.391C67.857 35.353 67.743 35.315 67.5529 35.277C67.3628 35.277 67.2108 35.2389 67.0967 35.2389V34.8208L69.4156 34.6687L69.4917 34.7448V39.1164H69.5297C69.6817 38.9643 69.7958 38.8503 69.9098 38.7362C70.0239 38.6222 70.176 38.5081 70.366 38.3941C70.5181 38.2801 70.7082 38.204 70.9363 38.128C71.1643 38.052 71.3924 38.052 71.6585 38.052C72.1908 38.052 72.6469 38.242 72.9511 38.5842C73.2552 38.9263 73.4072 39.4205 73.4072 40.1047V43.3359C73.4072 43.488 73.4453 43.602 73.4833 43.678C73.5213 43.7541 73.6353 43.8301 73.7494 43.9061C73.8254 43.9441 73.9395 43.9821 74.0155 43.9821C74.0915 43.9821 74.2056 44.0202 74.3196 44.0202V44.4003H74.2056ZM60.0259 44.0582C60.8622 44.7044 61.5465 45.5787 62.1167 46.6431C62.687 47.6695 62.9531 49 62.9531 50.5586C62.9531 53.2956 62.0407 55.5764 60.1399 57.3251C58.2772 59.1117 55.9202 59.986 53.0311 59.986C50.8262 59.986 48.9255 59.4538 47.4048 58.3894C45.8842 57.3251 45.0859 56.1086 45.0859 54.7021C45.0859 54.0558 45.238 53.4856 45.5421 52.9915C45.8462 52.4973 46.3404 52.2692 47.0247 52.2692C47.785 52.2692 48.3552 52.4593 48.7734 52.8774C49.1535 53.2956 49.3816 53.7137 49.3816 54.1699C49.3816 54.588 49.3056 55.0822 49.1916 55.6905C49.0395 56.2987 48.9255 56.7548 48.8494 57.059C48.9255 57.135 49.1155 57.249 49.3436 57.4011C49.5717 57.5531 49.8378 57.7052 50.18 57.8572C50.5221 58.0093 50.9022 58.1233 51.3964 58.2374C51.8526 58.3514 52.4229 58.3894 53.0691 58.3894C53.8674 58.3894 54.6277 58.2374 55.35 57.8953C56.0723 57.5531 56.6806 57.059 57.1748 56.4127C57.707 55.6904 58.1251 54.8922 58.3912 53.9798C58.6573 53.0675 58.8094 51.9271 58.8094 50.5205C58.8094 48.7339 58.3152 47.2133 57.3268 46.0729C56.3384 44.8945 55.0079 44.3243 53.3732 44.3243C52.3468 44.3243 51.3964 44.5143 50.5221 44.8945C49.6477 45.2746 48.8494 45.9209 48.1651 46.8332L46.8726 46.339L48.5073 32.578H62.1547V35.9612H50.0659L49.1155 43.9821C49.6858 43.602 50.4461 43.1839 51.3584 42.8037C52.2708 42.4236 53.2972 42.2335 54.4377 42.2335C55.35 42.2335 56.3004 42.3856 57.3268 42.6517C58.2772 42.9178 59.1896 43.4119 60.0259 44.0582Z" fill="url(#paint1_linear_186_743)"></path><defs><linearGradient id="paint0_linear_186_743" x1="0" y1="48.9987" x2="95.0163" y2="48.9987" gradientUnits="userSpaceOnUse"><stop stop-color="#F8EE66"></stop><stop offset="0.2242" stop-color="#D48720"></stop><stop offset="0.2909" stop-color="#FFCA38"></stop><stop offset="0.3314" stop-color="#EDAE2C"></stop><stop offset="0.3818" stop-color="#D4861B"></stop><stop offset="0.3823" stop-color="#D4861B"></stop><stop offset="0.4313" stop-color="#EBAA32"></stop><stop offset="0.4713" stop-color="#FAC040"></stop><stop offset="0.497" stop-color="#FFC845"></stop><stop offset="0.6485" stop-color="#FFFAC4"></stop><stop offset="0.6692" stop-color="#FFF5B5"></stop><stop offset="0.7094" stop-color="#FFE78D"></stop><stop offset="0.7644" stop-color="#FFD04C"></stop><stop offset="0.7939" stop-color="#FFC327"></stop><stop offset="0.8196" stop-color="#FED843"></stop><stop offset="0.8454" stop-color="#FEE757"></stop><stop offset="0.8713" stop-color="#FDF063"></stop><stop offset="0.897" stop-color="#FDF367"></stop><stop offset="1" stop-color="#FDF9C4"></stop></linearGradient><linearGradient id="paint1_linear_186_743" x1="24.214" y1="45.9525" x2="74.2127" y2="45.9525" gradientUnits="userSpaceOnUse"><stop stop-color="#F8EE66"></stop><stop offset="0.2242" stop-color="#D48720"></stop><stop offset="0.2909" stop-color="#FFCA38"></stop><stop offset="0.3314" stop-color="#EDAE2C"></stop><stop offset="0.3818" stop-color="#D4861B"></stop><stop offset="0.3823" stop-color="#D4861B"></stop><stop offset="0.4313" stop-color="#EBAA32"></stop><stop offset="0.4713" stop-color="#FAC040"></stop><stop offset="0.497" stop-color="#FFC845"></stop><stop offset="0.6485" stop-color="#FFFAC4"></stop><stop offset="0.6692" stop-color="#FFF5B5"></stop><stop offset="0.7094" stop-color="#FFE78D"></stop><stop offset="0.7644" stop-color="#FFD04C"></stop><stop offset="0.7939" stop-color="#FFC327"></stop><stop offset="0.8196" stop-color="#FED843"></stop><stop offset="0.8454" stop-color="#FEE757"></stop><stop offset="0.8713" stop-color="#FDF063"></stop><stop offset="0.897" stop-color="#FDF367"></stop><stop offset="1" stop-color="#FDF9C4"></stop></linearGradient></defs></svg>