<svg width="185" height="36" viewBox="0 0 185 36" fill="none" xmlns="http://www.w3.org/2000/svg">
<path d="M42.596 29V8.84H46.32V17.044H51.052L57.94 8.84H61.972V9.904L54.412 18.92L62 27.936V29H57.94L51.052 20.796H46.32V29H42.596ZM64.4885 29V8.84H68.1565V29H64.4885ZM78.4756 29V12.564H70.2436V8.84H90.4036V12.564H82.1996V29H78.4756ZM96.3897 29C95.6804 29 95.027 28.8227 94.4297 28.468C93.851 28.1133 93.3844 27.6467 93.0297 27.068C92.675 26.4707 92.4977 25.8173 92.4977 25.108V12.732C92.4977 12.0227 92.675 11.3787 93.0297 10.8C93.3844 10.2027 93.851 9.72667 94.4297 9.372C95.027 9.01733 95.6804 8.84 96.3897 8.84H112.602V12.564H97.1737C96.875 12.564 96.6324 12.648 96.4457 12.816C96.2777 12.984 96.1937 13.2267 96.1937 13.544V24.296C96.1937 24.5947 96.2777 24.8373 96.4457 25.024C96.6324 25.192 96.875 25.276 97.1737 25.276H112.602V29H96.3897ZM115.549 29V8.84H119.245V17.044H132.461V8.84H136.157V29H132.461V20.796H119.245V29H115.549ZM143.174 29C142.464 29 141.811 28.8227 141.214 28.468C140.635 28.1133 140.168 27.6467 139.814 27.068C139.459 26.4707 139.282 25.8173 139.282 25.108V12.732C139.282 12.0227 139.459 11.3787 139.814 10.8C140.168 10.2027 140.635 9.72667 141.214 9.372C141.811 9.01733 142.464 8.84 143.174 8.84H155.55C156.259 8.84 156.903 9.01733 157.482 9.372C158.079 9.72667 158.555 10.2027 158.91 10.8C159.264 11.3787 159.442 12.0227 159.442 12.732V25.108C159.442 25.8173 159.264 26.4707 158.91 27.068C158.555 27.6467 158.079 28.1133 157.482 28.468C156.903 28.8227 156.259 29 155.55 29H143.174ZM143.314 25.276H155.354C155.447 25.276 155.531 25.248 155.606 25.192C155.68 25.1173 155.718 25.0333 155.718 24.94V12.9C155.718 12.8067 155.68 12.732 155.606 12.676C155.531 12.6013 155.447 12.564 155.354 12.564H143.314C143.22 12.564 143.136 12.6013 143.062 12.676C143.006 12.732 142.978 12.8067 142.978 12.9V24.94C142.978 25.0333 143.006 25.1173 143.062 25.192C143.136 25.248 143.22 25.276 143.314 25.276ZM178.597 29L172.521 21.748H177.365L182.629 27.964V29H178.597ZM162.525 29V8.868H178.765C179.474 8.868 180.128 9.04533 180.725 9.4C181.322 9.75467 181.798 10.2307 182.153 10.828C182.508 11.4067 182.685 12.0507 182.685 12.76V18.192C182.685 18.9013 182.508 19.5547 182.153 20.152C181.798 20.7493 181.322 21.2253 180.725 21.58C180.128 21.916 179.474 22.084 178.765 22.084L166.221 22.112V29H162.525ZM166.557 18.36H178.597C178.69 18.36 178.774 18.332 178.849 18.276C178.924 18.22 178.961 18.1453 178.961 18.052V12.9C178.961 12.8067 178.924 12.732 178.849 12.676C178.774 12.6013 178.69 12.564 178.597 12.564H166.557C166.464 12.564 166.38 12.6013 166.305 12.676C166.249 12.732 166.221 12.8067 166.221 12.9V18.052C166.221 18.1453 166.249 18.22 166.305 18.276C166.38 18.332 166.464 18.36 166.557 18.36Z" fill="white"/>
<path fill-rule="evenodd" clip-rule="evenodd" d="M24.0388 24.0665L21.1587 22.4165V33.5575L30.8676 27.9895L24.0388 24.0665ZM11.8413 33.5525V22.4115L2.13243 27.9845L11.8413 33.5525ZM8.60499 22.6408L16.4975 18.1146L24.39 22.6408L30.8625 18.9272L16.5025 10.6824L2.13243 18.9272L8.60499 22.6408ZM33 9.46608C33 16.1905 33 21.5791 33 28.3932L19.7338 36V21.599L16.5025 19.7397L13.2662 21.594V35.995L0 28.3883C0 23.573 0 12.6563 0 9.46109L16.5025 0L33 9.46608ZM15.79 2.03877L2.13243 9.86984L8.60499 13.5835L15.79 9.46109V2.03877ZM24.395 13.5835L30.8676 9.86984L17.21 2.03877V9.46608L24.395 13.5835Z" fill="#DAA14C"/>
</svg>
